<?xml version="1.0" encoding="UTF-8"?>
<svg xmlns="http://www.w3.org/2000/svg" width="192" height="112" viewBox="0 0 192 112" shape-rendering="crispEdges">
  <title>Takamine monochrome occupancy reference</title>
  <desc>Integer-pixel editable tactical environment; collision remains runtime authority.</desc>
  <g id="occupancy">
    <rect x="0" y="0" width="192" height="112" fill="#e4e7e8"/>
    <rect x="1" y="1" width="14" height="14" fill="#26303a"/>
    <rect x="17" y="1" width="14" height="14" fill="#26303a"/>
    <rect x="33" y="1" width="14" height="14" fill="#26303a"/>
    <rect x="49" y="1" width="14" height="14" fill="#c8cdd0"/>
    <rect x="65" y="1" width="14" height="14" fill="#c8cdd0"/>
    <rect x="81" y="1" width="14" height="14" fill="#c8cdd0"/>
    <rect x="97" y="1" width="14" height="14" fill="#c8cdd0"/>
    <rect x="113" y="1" width="14" height="14" fill="#c8cdd0"/>
    <rect x="129" y="1" width="14" height="14" fill="#c8cdd0"/>
    <rect x="145" y="1" width="14" height="14" fill="#26303a"/>
    <rect x="161" y="1" width="14" height="14" fill="#26303a"/>
    <rect x="177" y="1" width="14" height="14" fill="#26303a"/>
    <rect x="1" y="17" width="14" height="14" fill="#c8cdd0"/>
    <rect x="17" y="17" width="14" height="14" fill="#c8cdd0"/>
    <rect x="33" y="17" width="14" height="14" fill="#c8cdd0"/>
    <rect x="49" y="17" width="14" height="14" fill="#c8cdd0"/>
    <rect x="52" y="20" width="8" height="8" fill="#68737b"/>
    <rect x="54" y="22" width="4" height="4" fill="#f4f5f5"/>
    <rect x="65" y="17" width="14" height="14" fill="#c8cdd0"/>
    <rect x="81" y="17" width="14" height="14" fill="#c8cdd0"/>
    <rect x="84" y="20" width="8" height="8" fill="#68737b"/>
    <rect x="86" y="22" width="4" height="4" fill="#f4f5f5"/>
    <rect x="97" y="17" width="14" height="14" fill="#c8cdd0"/>
    <rect x="113" y="17" width="14" height="14" fill="#c8cdd0"/>
    <rect x="129" y="17" width="14" height="14" fill="#c8cdd0"/>
    <rect x="145" y="17" width="14" height="14" fill="#c8cdd0"/>
    <rect x="161" y="17" width="14" height="14" fill="#c8cdd0"/>
    <rect x="177" y="17" width="14" height="14" fill="#c8cdd0"/>
    <rect x="1" y="33" width="14" height="14" fill="#c8cdd0"/>
    <rect x="4" y="36" width="8" height="8" fill="#68737b"/>
    <rect x="6" y="38" width="4" height="4" fill="#f4f5f5"/>
    <rect x="17" y="33" width="14" height="14" fill="#c8cdd0"/>
    <rect x="33" y="33" width="14" height="14" fill="#c8cdd0"/>
    <rect x="49" y="33" width="14" height="14" fill="#c8cdd0"/>
    <rect x="65" y="33" width="14" height="14" fill="#c8cdd0"/>
    <rect x="81" y="33" width="14" height="14" fill="#111820"/>
    <rect x="97" y="33" width="14" height="14" fill="#111820"/>
    <rect x="113" y="33" width="14" height="14" fill="#c8cdd0"/>
    <rect x="129" y="33" width="14" height="14" fill="#c8cdd0"/>
    <rect x="145" y="33" width="14" height="14" fill="#c8cdd0"/>
    <rect x="161" y="33" width="14" height="14" fill="#c8cdd0"/>
    <rect x="177" y="33" width="14" height="14" fill="#c8cdd0"/>
    <rect x="1" y="49" width="14" height="14" fill="#c8cdd0"/>
    <rect x="4" y="52" width="8" height="8" fill="#68737b"/>
    <rect x="6" y="54" width="4" height="4" fill="#f4f5f5"/>
    <rect x="17" y="49" width="14" height="14" fill="#c8cdd0"/>
    <rect x="33" y="49" width="14" height="14" fill="#c8cdd0"/>
    <rect x="36" y="52" width="8" height="8" fill="#68737b"/>
    <rect x="38" y="54" width="4" height="4" fill="#f4f5f5"/>
    <rect x="49" y="49" width="14" height="14" fill="#c8cdd0"/>
    <rect x="52" y="52" width="8" height="8" fill="#68737b"/>
    <rect x="54" y="54" width="4" height="4" fill="#f4f5f5"/>
    <rect x="65" y="49" width="14" height="14" fill="#c8cdd0"/>
    <rect x="81" y="49" width="14" height="14" fill="#111820"/>
    <rect x="97" y="49" width="14" height="14" fill="#111820"/>
    <rect x="113" y="49" width="14" height="14" fill="#c8cdd0"/>
    <rect x="129" y="49" width="14" height="14" fill="#c8cdd0"/>
    <rect x="145" y="49" width="14" height="14" fill="#c8cdd0"/>
    <rect x="148" y="52" width="8" height="8" fill="#68737b"/>
    <rect x="150" y="54" width="4" height="4" fill="#f4f5f5"/>
    <rect x="161" y="49" width="14" height="14" fill="#c8cdd0"/>
    <rect x="177" y="49" width="14" height="14" fill="#c8cdd0"/>
    <rect x="180" y="52" width="8" height="8" fill="#68737b"/>
    <rect x="182" y="54" width="4" height="4" fill="#f4f5f5"/>
    <rect x="1" y="65" width="14" height="14" fill="#c8cdd0"/>
    <rect x="4" y="68" width="8" height="8" fill="#68737b"/>
    <rect x="6" y="70" width="4" height="4" fill="#f4f5f5"/>
    <rect x="17" y="65" width="14" height="14" fill="#c8cdd0"/>
    <rect x="33" y="65" width="14" height="14" fill="#c8cdd0"/>
    <rect x="36" y="68" width="8" height="8" fill="#68737b"/>
    <rect x="38" y="70" width="4" height="4" fill="#f4f5f5"/>
    <rect x="49" y="65" width="14" height="14" fill="#c8cdd0"/>
    <rect x="65" y="65" width="14" height="14" fill="#c8cdd0"/>
    <rect x="81" y="65" width="14" height="14" fill="#c8cdd0"/>
    <rect x="97" y="65" width="14" height="14" fill="#c8cdd0"/>
    <rect x="113" y="65" width="14" height="14" fill="#c8cdd0"/>
    <rect x="129" y="65" width="14" height="14" fill="#c8cdd0"/>
    <rect x="145" y="65" width="14" height="14" fill="#c8cdd0"/>
    <rect x="161" y="65" width="14" height="14" fill="#c8cdd0"/>
    <rect x="177" y="65" width="14" height="14" fill="#c8cdd0"/>
    <rect x="1" y="81" width="14" height="14" fill="#c8cdd0"/>
    <rect x="17" y="81" width="14" height="14" fill="#c8cdd0"/>
    <rect x="33" y="81" width="14" height="14" fill="#c8cdd0"/>
    <rect x="49" y="81" width="14" height="14" fill="#c8cdd0"/>
    <rect x="52" y="84" width="8" height="8" fill="#68737b"/>
    <rect x="54" y="86" width="4" height="4" fill="#f4f5f5"/>
    <rect x="65" y="81" width="14" height="14" fill="#c8cdd0"/>
    <rect x="81" y="81" width="14" height="14" fill="#c8cdd0"/>
    <rect x="97" y="81" width="14" height="14" fill="#c8cdd0"/>
    <rect x="100" y="84" width="8" height="8" fill="#68737b"/>
    <rect x="102" y="86" width="4" height="4" fill="#f4f5f5"/>
    <rect x="113" y="81" width="14" height="14" fill="#c8cdd0"/>
    <rect x="129" y="81" width="14" height="14" fill="#c8cdd0"/>
    <rect x="145" y="81" width="14" height="14" fill="#c8cdd0"/>
    <rect x="161" y="81" width="14" height="14" fill="#c8cdd0"/>
    <rect x="177" y="81" width="14" height="14" fill="#c8cdd0"/>
    <rect x="1" y="97" width="14" height="14" fill="#26303a"/>
    <rect x="17" y="97" width="14" height="14" fill="#26303a"/>
    <rect x="33" y="97" width="14" height="14" fill="#26303a"/>
    <rect x="49" y="97" width="14" height="14" fill="#c8cdd0"/>
    <rect x="65" y="97" width="14" height="14" fill="#c8cdd0"/>
    <rect x="81" y="97" width="14" height="14" fill="#c8cdd0"/>
    <rect x="97" y="97" width="14" height="14" fill="#c8cdd0"/>
    <rect x="113" y="97" width="14" height="14" fill="#c8cdd0"/>
    <rect x="129" y="97" width="14" height="14" fill="#c8cdd0"/>
    <rect x="145" y="97" width="14" height="14" fill="#26303a"/>
    <rect x="161" y="97" width="14" height="14" fill="#26303a"/>
    <rect x="177" y="97" width="14" height="14" fill="#26303a"/>
  </g>
</svg>
