<?xml version="1.0" encoding="UTF-8"?>
<svg xmlns="http://www.w3.org/2000/svg" width="384" height="224" viewBox="0 0 384 224" shape-rendering="crispEdges">
  <title>Takamine bell-chamber tactical board</title>
  <desc>Integer-pixel editable tactical environment; collision remains runtime authority.</desc>
  <g id="foundation">
    <rect x="0" y="0" width="384" height="224" fill="#0b111a"/>
    <rect x="1" y="1" width="382" height="222" fill="#111a27"/>
  </g>
  <g id="floor-modules">
    <rect x="1" y="1" width="30" height="30" fill="#202d3d"/>
    <rect x="2" y="2" width="28" height="1" fill="#304153"/>
    <rect x="2" y="29" width="28" height="1" fill="#172332"/>
    <rect x="7" y="11" width="12" height="1" fill="#40556a"/>
    <rect x="7" y="12" width="7" height="1" fill="#304153"/>
    <rect x="4" y="25" width="2" height="2" fill="#172332"/>
    <rect x="33" y="1" width="30" height="30" fill="#29394a"/>
    <rect x="34" y="2" width="28" height="1" fill="#304153"/>
    <rect x="34" y="29" width="28" height="1" fill="#172332"/>
    <rect x="65" y="1" width="30" height="30" fill="#243345"/>
    <rect x="66" y="2" width="28" height="1" fill="#304153"/>
    <rect x="66" y="29" width="28" height="1" fill="#172332"/>
    <rect x="82" y="20" width="8" height="1" fill="#40556a"/>
    <rect x="97" y="1" width="30" height="30" fill="#243345"/>
    <rect x="98" y="2" width="28" height="1" fill="#304153"/>
    <rect x="98" y="29" width="28" height="1" fill="#172332"/>
    <rect x="103" y="11" width="12" height="1" fill="#40556a"/>
    <rect x="103" y="12" width="7" height="1" fill="#304153"/>
    <rect x="129" y="1" width="30" height="30" fill="#243345"/>
    <rect x="130" y="2" width="28" height="1" fill="#304153"/>
    <rect x="130" y="29" width="28" height="1" fill="#172332"/>
    <rect x="146" y="20" width="8" height="1" fill="#40556a"/>
    <rect x="161" y="1" width="30" height="30" fill="#202d3d"/>
    <rect x="162" y="2" width="28" height="1" fill="#304153"/>
    <rect x="162" y="29" width="28" height="1" fill="#172332"/>
    <rect x="193" y="1" width="30" height="30" fill="#29394a"/>
    <rect x="194" y="2" width="28" height="1" fill="#304153"/>
    <rect x="194" y="29" width="28" height="1" fill="#172332"/>
    <rect x="199" y="11" width="12" height="1" fill="#40556a"/>
    <rect x="199" y="12" width="7" height="1" fill="#304153"/>
    <rect x="196" y="25" width="2" height="2" fill="#172332"/>
    <rect x="225" y="1" width="30" height="30" fill="#243345"/>
    <rect x="226" y="2" width="28" height="1" fill="#304153"/>
    <rect x="226" y="29" width="28" height="1" fill="#172332"/>
    <rect x="257" y="1" width="30" height="30" fill="#243345"/>
    <rect x="258" y="2" width="28" height="1" fill="#304153"/>
    <rect x="258" y="29" width="28" height="1" fill="#172332"/>
    <rect x="274" y="20" width="8" height="1" fill="#40556a"/>
    <rect x="289" y="1" width="30" height="30" fill="#202d3d"/>
    <rect x="290" y="2" width="28" height="1" fill="#304153"/>
    <rect x="290" y="29" width="28" height="1" fill="#172332"/>
    <rect x="295" y="11" width="12" height="1" fill="#40556a"/>
    <rect x="295" y="12" width="7" height="1" fill="#304153"/>
    <rect x="321" y="1" width="30" height="30" fill="#243345"/>
    <rect x="322" y="2" width="28" height="1" fill="#304153"/>
    <rect x="322" y="29" width="28" height="1" fill="#172332"/>
    <rect x="338" y="20" width="8" height="1" fill="#40556a"/>
    <rect x="353" y="1" width="30" height="30" fill="#29394a"/>
    <rect x="354" y="2" width="28" height="1" fill="#304153"/>
    <rect x="354" y="29" width="28" height="1" fill="#172332"/>
    <rect x="1" y="33" width="30" height="30" fill="#243345"/>
    <rect x="2" y="34" width="28" height="1" fill="#304153"/>
    <rect x="2" y="61" width="28" height="1" fill="#172332"/>
    <rect x="33" y="33" width="30" height="30" fill="#29394a"/>
    <rect x="34" y="34" width="28" height="1" fill="#304153"/>
    <rect x="34" y="61" width="28" height="1" fill="#172332"/>
    <rect x="36" y="57" width="2" height="2" fill="#172332"/>
    <rect x="65" y="33" width="30" height="30" fill="#29394a"/>
    <rect x="66" y="34" width="28" height="1" fill="#304153"/>
    <rect x="66" y="61" width="28" height="1" fill="#172332"/>
    <rect x="71" y="43" width="12" height="1" fill="#40556a"/>
    <rect x="71" y="44" width="7" height="1" fill="#304153"/>
    <rect x="97" y="33" width="30" height="30" fill="#243345"/>
    <rect x="98" y="34" width="28" height="1" fill="#304153"/>
    <rect x="98" y="61" width="28" height="1" fill="#172332"/>
    <rect x="129" y="33" width="30" height="30" fill="#202d3d"/>
    <rect x="130" y="34" width="28" height="1" fill="#304153"/>
    <rect x="130" y="61" width="28" height="1" fill="#172332"/>
    <rect x="161" y="33" width="30" height="30" fill="#202d3d"/>
    <rect x="162" y="34" width="28" height="1" fill="#304153"/>
    <rect x="162" y="61" width="28" height="1" fill="#172332"/>
    <rect x="167" y="43" width="12" height="1" fill="#40556a"/>
    <rect x="167" y="44" width="7" height="1" fill="#304153"/>
    <rect x="193" y="33" width="30" height="30" fill="#243345"/>
    <rect x="194" y="34" width="28" height="1" fill="#304153"/>
    <rect x="194" y="61" width="28" height="1" fill="#172332"/>
    <rect x="225" y="33" width="30" height="30" fill="#243345"/>
    <rect x="226" y="34" width="28" height="1" fill="#304153"/>
    <rect x="226" y="61" width="28" height="1" fill="#172332"/>
    <rect x="228" y="57" width="2" height="2" fill="#172332"/>
    <rect x="257" y="33" width="30" height="30" fill="#29394a"/>
    <rect x="258" y="34" width="28" height="1" fill="#304153"/>
    <rect x="258" y="61" width="28" height="1" fill="#172332"/>
    <rect x="263" y="43" width="12" height="1" fill="#40556a"/>
    <rect x="263" y="44" width="7" height="1" fill="#304153"/>
    <rect x="289" y="33" width="30" height="30" fill="#202d3d"/>
    <rect x="290" y="34" width="28" height="1" fill="#304153"/>
    <rect x="290" y="61" width="28" height="1" fill="#172332"/>
    <rect x="321" y="33" width="30" height="30" fill="#29394a"/>
    <rect x="322" y="34" width="28" height="1" fill="#304153"/>
    <rect x="322" y="61" width="28" height="1" fill="#172332"/>
    <rect x="353" y="33" width="30" height="30" fill="#202d3d"/>
    <rect x="354" y="34" width="28" height="1" fill="#304153"/>
    <rect x="354" y="61" width="28" height="1" fill="#172332"/>
    <rect x="359" y="43" width="12" height="1" fill="#40556a"/>
    <rect x="359" y="44" width="7" height="1" fill="#304153"/>
    <rect x="1" y="65" width="30" height="30" fill="#29394a"/>
    <rect x="2" y="66" width="28" height="1" fill="#304153"/>
    <rect x="2" y="93" width="28" height="1" fill="#172332"/>
    <rect x="33" y="65" width="30" height="30" fill="#29394a"/>
    <rect x="34" y="66" width="28" height="1" fill="#304153"/>
    <rect x="34" y="93" width="28" height="1" fill="#172332"/>
    <rect x="39" y="75" width="12" height="1" fill="#40556a"/>
    <rect x="39" y="76" width="7" height="1" fill="#304153"/>
    <rect x="65" y="65" width="30" height="30" fill="#243345"/>
    <rect x="66" y="66" width="28" height="1" fill="#304153"/>
    <rect x="66" y="93" width="28" height="1" fill="#172332"/>
    <rect x="68" y="89" width="2" height="2" fill="#172332"/>
    <rect x="97" y="65" width="30" height="30" fill="#243345"/>
    <rect x="98" y="66" width="28" height="1" fill="#304153"/>
    <rect x="98" y="93" width="28" height="1" fill="#172332"/>
    <rect x="114" y="84" width="8" height="1" fill="#40556a"/>
    <rect x="129" y="65" width="30" height="30" fill="#243345"/>
    <rect x="130" y="66" width="28" height="1" fill="#304153"/>
    <rect x="130" y="93" width="28" height="1" fill="#172332"/>
    <rect x="135" y="75" width="12" height="1" fill="#40556a"/>
    <rect x="135" y="76" width="7" height="1" fill="#304153"/>
    <rect x="161" y="65" width="30" height="30" fill="#202d3d"/>
    <rect x="162" y="66" width="28" height="1" fill="#304153"/>
    <rect x="162" y="93" width="28" height="1" fill="#172332"/>
    <rect x="178" y="84" width="8" height="1" fill="#40556a"/>
    <rect x="193" y="65" width="30" height="30" fill="#202d3d"/>
    <rect x="194" y="66" width="28" height="1" fill="#304153"/>
    <rect x="194" y="93" width="28" height="1" fill="#172332"/>
    <rect x="225" y="65" width="30" height="30" fill="#243345"/>
    <rect x="226" y="66" width="28" height="1" fill="#304153"/>
    <rect x="226" y="93" width="28" height="1" fill="#172332"/>
    <rect x="231" y="75" width="12" height="1" fill="#40556a"/>
    <rect x="231" y="76" width="7" height="1" fill="#304153"/>
    <rect x="257" y="65" width="30" height="30" fill="#243345"/>
    <rect x="258" y="66" width="28" height="1" fill="#304153"/>
    <rect x="258" y="93" width="28" height="1" fill="#172332"/>
    <rect x="260" y="89" width="2" height="2" fill="#172332"/>
    <rect x="289" y="65" width="30" height="30" fill="#202d3d"/>
    <rect x="290" y="66" width="28" height="1" fill="#304153"/>
    <rect x="290" y="93" width="28" height="1" fill="#172332"/>
    <rect x="306" y="84" width="8" height="1" fill="#40556a"/>
    <rect x="321" y="65" width="30" height="30" fill="#243345"/>
    <rect x="322" y="66" width="28" height="1" fill="#304153"/>
    <rect x="322" y="93" width="28" height="1" fill="#172332"/>
    <rect x="327" y="75" width="12" height="1" fill="#40556a"/>
    <rect x="327" y="76" width="7" height="1" fill="#304153"/>
    <rect x="353" y="65" width="30" height="30" fill="#29394a"/>
    <rect x="354" y="66" width="28" height="1" fill="#304153"/>
    <rect x="354" y="93" width="28" height="1" fill="#172332"/>
    <rect x="370" y="84" width="8" height="1" fill="#40556a"/>
    <rect x="1" y="97" width="30" height="30" fill="#243345"/>
    <rect x="2" y="98" width="28" height="1" fill="#304153"/>
    <rect x="2" y="125" width="28" height="1" fill="#172332"/>
    <rect x="7" y="107" width="12" height="1" fill="#40556a"/>
    <rect x="7" y="108" width="7" height="1" fill="#304153"/>
    <rect x="33" y="97" width="30" height="30" fill="#29394a"/>
    <rect x="34" y="98" width="28" height="1" fill="#304153"/>
    <rect x="34" y="125" width="28" height="1" fill="#172332"/>
    <rect x="65" y="97" width="30" height="30" fill="#202d3d"/>
    <rect x="66" y="98" width="28" height="1" fill="#304153"/>
    <rect x="66" y="125" width="28" height="1" fill="#172332"/>
    <rect x="97" y="97" width="30" height="30" fill="#243345"/>
    <rect x="98" y="98" width="28" height="1" fill="#304153"/>
    <rect x="98" y="125" width="28" height="1" fill="#172332"/>
    <rect x="103" y="107" width="12" height="1" fill="#40556a"/>
    <rect x="103" y="108" width="7" height="1" fill="#304153"/>
    <rect x="100" y="121" width="2" height="2" fill="#172332"/>
    <rect x="129" y="97" width="30" height="30" fill="#29394a"/>
    <rect x="130" y="98" width="28" height="1" fill="#304153"/>
    <rect x="130" y="125" width="28" height="1" fill="#172332"/>
    <rect x="161" y="97" width="30" height="30" fill="#202d3d"/>
    <rect x="162" y="98" width="28" height="1" fill="#304153"/>
    <rect x="162" y="125" width="28" height="1" fill="#172332"/>
    <rect x="193" y="97" width="30" height="30" fill="#243345"/>
    <rect x="194" y="98" width="28" height="1" fill="#304153"/>
    <rect x="194" y="125" width="28" height="1" fill="#172332"/>
    <rect x="199" y="107" width="12" height="1" fill="#40556a"/>
    <rect x="199" y="108" width="7" height="1" fill="#304153"/>
    <rect x="225" y="97" width="30" height="30" fill="#243345"/>
    <rect x="226" y="98" width="28" height="1" fill="#304153"/>
    <rect x="226" y="125" width="28" height="1" fill="#172332"/>
    <rect x="257" y="97" width="30" height="30" fill="#202d3d"/>
    <rect x="258" y="98" width="28" height="1" fill="#304153"/>
    <rect x="258" y="125" width="28" height="1" fill="#172332"/>
    <rect x="289" y="97" width="30" height="30" fill="#202d3d"/>
    <rect x="290" y="98" width="28" height="1" fill="#304153"/>
    <rect x="290" y="125" width="28" height="1" fill="#172332"/>
    <rect x="295" y="107" width="12" height="1" fill="#40556a"/>
    <rect x="295" y="108" width="7" height="1" fill="#304153"/>
    <rect x="292" y="121" width="2" height="2" fill="#172332"/>
    <rect x="321" y="97" width="30" height="30" fill="#202d3d"/>
    <rect x="322" y="98" width="28" height="1" fill="#304153"/>
    <rect x="322" y="125" width="28" height="1" fill="#172332"/>
    <rect x="353" y="97" width="30" height="30" fill="#202d3d"/>
    <rect x="354" y="98" width="28" height="1" fill="#304153"/>
    <rect x="354" y="125" width="28" height="1" fill="#172332"/>
    <rect x="1" y="129" width="30" height="30" fill="#202d3d"/>
    <rect x="2" y="130" width="28" height="1" fill="#304153"/>
    <rect x="2" y="157" width="28" height="1" fill="#172332"/>
    <rect x="18" y="148" width="8" height="1" fill="#40556a"/>
    <rect x="33" y="129" width="30" height="30" fill="#29394a"/>
    <rect x="34" y="130" width="28" height="1" fill="#304153"/>
    <rect x="34" y="157" width="28" height="1" fill="#172332"/>
    <rect x="65" y="129" width="30" height="30" fill="#243345"/>
    <rect x="66" y="130" width="28" height="1" fill="#304153"/>
    <rect x="66" y="157" width="28" height="1" fill="#172332"/>
    <rect x="71" y="139" width="12" height="1" fill="#40556a"/>
    <rect x="71" y="140" width="7" height="1" fill="#304153"/>
    <rect x="97" y="129" width="30" height="30" fill="#243345"/>
    <rect x="98" y="130" width="28" height="1" fill="#304153"/>
    <rect x="98" y="157" width="28" height="1" fill="#172332"/>
    <rect x="129" y="129" width="30" height="30" fill="#243345"/>
    <rect x="130" y="130" width="28" height="1" fill="#304153"/>
    <rect x="130" y="157" width="28" height="1" fill="#172332"/>
    <rect x="146" y="148" width="8" height="1" fill="#40556a"/>
    <rect x="132" y="153" width="2" height="2" fill="#172332"/>
    <rect x="161" y="129" width="30" height="30" fill="#202d3d"/>
    <rect x="162" y="130" width="28" height="1" fill="#304153"/>
    <rect x="162" y="157" width="28" height="1" fill="#172332"/>
    <rect x="167" y="139" width="12" height="1" fill="#40556a"/>
    <rect x="167" y="140" width="7" height="1" fill="#304153"/>
    <rect x="193" y="129" width="30" height="30" fill="#29394a"/>
    <rect x="194" y="130" width="28" height="1" fill="#304153"/>
    <rect x="194" y="157" width="28" height="1" fill="#172332"/>
    <rect x="210" y="148" width="8" height="1" fill="#40556a"/>
    <rect x="225" y="129" width="30" height="30" fill="#243345"/>
    <rect x="226" y="130" width="28" height="1" fill="#304153"/>
    <rect x="226" y="157" width="28" height="1" fill="#172332"/>
    <rect x="257" y="129" width="30" height="30" fill="#243345"/>
    <rect x="258" y="130" width="28" height="1" fill="#304153"/>
    <rect x="258" y="157" width="28" height="1" fill="#172332"/>
    <rect x="263" y="139" width="12" height="1" fill="#40556a"/>
    <rect x="263" y="140" width="7" height="1" fill="#304153"/>
    <rect x="289" y="129" width="30" height="30" fill="#202d3d"/>
    <rect x="290" y="130" width="28" height="1" fill="#304153"/>
    <rect x="290" y="157" width="28" height="1" fill="#172332"/>
    <rect x="321" y="129" width="30" height="30" fill="#243345"/>
    <rect x="322" y="130" width="28" height="1" fill="#304153"/>
    <rect x="322" y="157" width="28" height="1" fill="#172332"/>
    <rect x="338" y="148" width="8" height="1" fill="#40556a"/>
    <rect x="324" y="153" width="2" height="2" fill="#172332"/>
    <rect x="353" y="129" width="30" height="30" fill="#29394a"/>
    <rect x="354" y="130" width="28" height="1" fill="#304153"/>
    <rect x="354" y="157" width="28" height="1" fill="#172332"/>
    <rect x="359" y="139" width="12" height="1" fill="#40556a"/>
    <rect x="359" y="140" width="7" height="1" fill="#304153"/>
    <rect x="1" y="161" width="30" height="30" fill="#243345"/>
    <rect x="2" y="162" width="28" height="1" fill="#304153"/>
    <rect x="2" y="189" width="28" height="1" fill="#172332"/>
    <rect x="33" y="161" width="30" height="30" fill="#29394a"/>
    <rect x="34" y="162" width="28" height="1" fill="#304153"/>
    <rect x="34" y="189" width="28" height="1" fill="#172332"/>
    <rect x="39" y="171" width="12" height="1" fill="#40556a"/>
    <rect x="39" y="172" width="7" height="1" fill="#304153"/>
    <rect x="65" y="161" width="30" height="30" fill="#29394a"/>
    <rect x="66" y="162" width="28" height="1" fill="#304153"/>
    <rect x="66" y="189" width="28" height="1" fill="#172332"/>
    <rect x="97" y="161" width="30" height="30" fill="#243345"/>
    <rect x="98" y="162" width="28" height="1" fill="#304153"/>
    <rect x="98" y="189" width="28" height="1" fill="#172332"/>
    <rect x="129" y="161" width="30" height="30" fill="#202d3d"/>
    <rect x="130" y="162" width="28" height="1" fill="#304153"/>
    <rect x="130" y="189" width="28" height="1" fill="#172332"/>
    <rect x="135" y="171" width="12" height="1" fill="#40556a"/>
    <rect x="135" y="172" width="7" height="1" fill="#304153"/>
    <rect x="161" y="161" width="30" height="30" fill="#202d3d"/>
    <rect x="162" y="162" width="28" height="1" fill="#304153"/>
    <rect x="162" y="189" width="28" height="1" fill="#172332"/>
    <rect x="164" y="185" width="2" height="2" fill="#172332"/>
    <rect x="193" y="161" width="30" height="30" fill="#243345"/>
    <rect x="194" y="162" width="28" height="1" fill="#304153"/>
    <rect x="194" y="189" width="28" height="1" fill="#172332"/>
    <rect x="225" y="161" width="30" height="30" fill="#243345"/>
    <rect x="226" y="162" width="28" height="1" fill="#304153"/>
    <rect x="226" y="189" width="28" height="1" fill="#172332"/>
    <rect x="231" y="171" width="12" height="1" fill="#40556a"/>
    <rect x="231" y="172" width="7" height="1" fill="#304153"/>
    <rect x="257" y="161" width="30" height="30" fill="#29394a"/>
    <rect x="258" y="162" width="28" height="1" fill="#304153"/>
    <rect x="258" y="189" width="28" height="1" fill="#172332"/>
    <rect x="289" y="161" width="30" height="30" fill="#202d3d"/>
    <rect x="290" y="162" width="28" height="1" fill="#304153"/>
    <rect x="290" y="189" width="28" height="1" fill="#172332"/>
    <rect x="321" y="161" width="30" height="30" fill="#29394a"/>
    <rect x="322" y="162" width="28" height="1" fill="#304153"/>
    <rect x="322" y="189" width="28" height="1" fill="#172332"/>
    <rect x="327" y="171" width="12" height="1" fill="#40556a"/>
    <rect x="327" y="172" width="7" height="1" fill="#304153"/>
    <rect x="353" y="161" width="30" height="30" fill="#202d3d"/>
    <rect x="354" y="162" width="28" height="1" fill="#304153"/>
    <rect x="354" y="189" width="28" height="1" fill="#172332"/>
    <rect x="356" y="185" width="2" height="2" fill="#172332"/>
    <rect x="1" y="193" width="30" height="30" fill="#29394a"/>
    <rect x="2" y="194" width="28" height="1" fill="#304153"/>
    <rect x="2" y="221" width="28" height="1" fill="#172332"/>
    <rect x="7" y="203" width="12" height="1" fill="#40556a"/>
    <rect x="7" y="204" width="7" height="1" fill="#304153"/>
    <rect x="4" y="217" width="2" height="2" fill="#172332"/>
    <rect x="33" y="193" width="30" height="30" fill="#29394a"/>
    <rect x="34" y="194" width="28" height="1" fill="#304153"/>
    <rect x="34" y="221" width="28" height="1" fill="#172332"/>
    <rect x="50" y="212" width="8" height="1" fill="#40556a"/>
    <rect x="65" y="193" width="30" height="30" fill="#243345"/>
    <rect x="66" y="194" width="28" height="1" fill="#304153"/>
    <rect x="66" y="221" width="28" height="1" fill="#172332"/>
    <rect x="97" y="193" width="30" height="30" fill="#243345"/>
    <rect x="98" y="194" width="28" height="1" fill="#304153"/>
    <rect x="98" y="221" width="28" height="1" fill="#172332"/>
    <rect x="103" y="203" width="12" height="1" fill="#40556a"/>
    <rect x="103" y="204" width="7" height="1" fill="#304153"/>
    <rect x="129" y="193" width="30" height="30" fill="#243345"/>
    <rect x="130" y="194" width="28" height="1" fill="#304153"/>
    <rect x="130" y="221" width="28" height="1" fill="#172332"/>
    <rect x="161" y="193" width="30" height="30" fill="#202d3d"/>
    <rect x="162" y="194" width="28" height="1" fill="#304153"/>
    <rect x="162" y="221" width="28" height="1" fill="#172332"/>
    <rect x="178" y="212" width="8" height="1" fill="#40556a"/>
    <rect x="193" y="193" width="30" height="30" fill="#202d3d"/>
    <rect x="194" y="194" width="28" height="1" fill="#304153"/>
    <rect x="194" y="221" width="28" height="1" fill="#172332"/>
    <rect x="199" y="203" width="12" height="1" fill="#40556a"/>
    <rect x="199" y="204" width="7" height="1" fill="#304153"/>
    <rect x="196" y="217" width="2" height="2" fill="#172332"/>
    <rect x="225" y="193" width="30" height="30" fill="#243345"/>
    <rect x="226" y="194" width="28" height="1" fill="#304153"/>
    <rect x="226" y="221" width="28" height="1" fill="#172332"/>
    <rect x="242" y="212" width="8" height="1" fill="#40556a"/>
    <rect x="257" y="193" width="30" height="30" fill="#243345"/>
    <rect x="258" y="194" width="28" height="1" fill="#304153"/>
    <rect x="258" y="221" width="28" height="1" fill="#172332"/>
    <rect x="289" y="193" width="30" height="30" fill="#202d3d"/>
    <rect x="290" y="194" width="28" height="1" fill="#304153"/>
    <rect x="290" y="221" width="28" height="1" fill="#172332"/>
    <rect x="295" y="203" width="12" height="1" fill="#40556a"/>
    <rect x="295" y="204" width="7" height="1" fill="#304153"/>
    <rect x="321" y="193" width="30" height="30" fill="#243345"/>
    <rect x="322" y="194" width="28" height="1" fill="#304153"/>
    <rect x="322" y="221" width="28" height="1" fill="#172332"/>
    <rect x="353" y="193" width="30" height="30" fill="#29394a"/>
    <rect x="354" y="194" width="28" height="1" fill="#304153"/>
    <rect x="354" y="221" width="28" height="1" fill="#172332"/>
    <rect x="370" y="212" width="8" height="1" fill="#40556a"/>
  </g>
  <g id="boundary-architecture">
    <rect x="1" y="1" width="30" height="30" fill="#0e151d"/>
    <rect x="3" y="3" width="26" height="26" fill="#211b1d"/>
    <rect x="5" y="4" width="22" height="17" fill="#39424b"/>
    <rect x="6" y="5" width="20" height="14" fill="#4a535b"/>
    <rect x="3" y="22" width="26" height="6" fill="#332528"/>
    <rect x="3" y="27" width="26" height="2" fill="#303c44"/>
    <rect x="8" y="8" width="1" height="6" fill="#39424b"/>
    <rect x="15" y="15" width="6" height="1" fill="#39424b"/>
    <rect x="3" y="3" width="3" height="26" fill="#483338"/>
    <rect x="26" y="3" width="3" height="26" fill="#211b1d"/>
    <rect x="5" y="26" width="2" height="2" fill="#514735"/>
    <rect x="25" y="26" width="2" height="2" fill="#514735"/>
    <rect x="1" y="193" width="30" height="30" fill="#0e151d"/>
    <rect x="3" y="195" width="26" height="26" fill="#211b1d"/>
    <rect x="3" y="195" width="26" height="2" fill="#303c44"/>
    <rect x="3" y="199" width="26" height="6" fill="#332528"/>
    <rect x="5" y="207" width="22" height="13" fill="#39424b"/>
    <rect x="6" y="208" width="20" height="11" fill="#4a535b"/>
    <rect x="11" y="212" width="7" height="1" fill="#39424b"/>
    <rect x="3" y="195" width="3" height="26" fill="#483338"/>
    <rect x="26" y="195" width="3" height="26" fill="#211b1d"/>
    <rect x="5" y="199" width="2" height="2" fill="#514735"/>
    <rect x="25" y="199" width="2" height="2" fill="#514735"/>
    <rect x="33" y="1" width="30" height="30" fill="#0e151d"/>
    <rect x="35" y="3" width="26" height="26" fill="#211b1d"/>
    <rect x="37" y="4" width="22" height="17" fill="#39424b"/>
    <rect x="38" y="5" width="20" height="14" fill="#4a535b"/>
    <rect x="35" y="22" width="26" height="6" fill="#332528"/>
    <rect x="35" y="27" width="26" height="2" fill="#303c44"/>
    <rect x="41" y="8" width="1" height="6" fill="#39424b"/>
    <rect x="48" y="15" width="6" height="1" fill="#39424b"/>
    <rect x="35" y="3" width="3" height="26" fill="#483338"/>
    <rect x="58" y="3" width="3" height="26" fill="#211b1d"/>
    <rect x="37" y="26" width="2" height="2" fill="#514735"/>
    <rect x="57" y="26" width="2" height="2" fill="#514735"/>
    <rect x="33" y="193" width="30" height="30" fill="#0e151d"/>
    <rect x="35" y="195" width="26" height="26" fill="#211b1d"/>
    <rect x="35" y="195" width="26" height="2" fill="#303c44"/>
    <rect x="35" y="199" width="26" height="6" fill="#332528"/>
    <rect x="37" y="207" width="22" height="13" fill="#39424b"/>
    <rect x="38" y="208" width="20" height="11" fill="#4a535b"/>
    <rect x="44" y="212" width="7" height="1" fill="#39424b"/>
    <rect x="35" y="195" width="3" height="26" fill="#483338"/>
    <rect x="58" y="195" width="3" height="26" fill="#211b1d"/>
    <rect x="37" y="199" width="2" height="2" fill="#514735"/>
    <rect x="57" y="199" width="2" height="2" fill="#514735"/>
    <rect x="321" y="1" width="30" height="30" fill="#0e151d"/>
    <rect x="323" y="3" width="26" height="26" fill="#211b1d"/>
    <rect x="325" y="4" width="22" height="17" fill="#39424b"/>
    <rect x="326" y="5" width="20" height="14" fill="#4a535b"/>
    <rect x="323" y="22" width="26" height="6" fill="#332528"/>
    <rect x="323" y="27" width="26" height="2" fill="#303c44"/>
    <rect x="330" y="8" width="1" height="6" fill="#39424b"/>
    <rect x="335" y="15" width="6" height="1" fill="#39424b"/>
    <rect x="323" y="3" width="3" height="26" fill="#483338"/>
    <rect x="346" y="3" width="3" height="26" fill="#211b1d"/>
    <rect x="325" y="26" width="2" height="2" fill="#514735"/>
    <rect x="345" y="26" width="2" height="2" fill="#514735"/>
    <rect x="321" y="193" width="30" height="30" fill="#0e151d"/>
    <rect x="323" y="195" width="26" height="26" fill="#211b1d"/>
    <rect x="323" y="195" width="26" height="2" fill="#303c44"/>
    <rect x="323" y="199" width="26" height="6" fill="#332528"/>
    <rect x="325" y="207" width="22" height="13" fill="#39424b"/>
    <rect x="326" y="208" width="20" height="11" fill="#4a535b"/>
    <rect x="335" y="212" width="7" height="1" fill="#39424b"/>
    <rect x="323" y="195" width="3" height="26" fill="#483338"/>
    <rect x="346" y="195" width="3" height="26" fill="#211b1d"/>
    <rect x="325" y="199" width="2" height="2" fill="#514735"/>
    <rect x="345" y="199" width="2" height="2" fill="#514735"/>
    <rect x="353" y="1" width="30" height="30" fill="#0e151d"/>
    <rect x="355" y="3" width="26" height="26" fill="#211b1d"/>
    <rect x="357" y="4" width="22" height="17" fill="#39424b"/>
    <rect x="358" y="5" width="20" height="14" fill="#4a535b"/>
    <rect x="355" y="22" width="26" height="6" fill="#332528"/>
    <rect x="355" y="27" width="26" height="2" fill="#303c44"/>
    <rect x="363" y="8" width="1" height="6" fill="#39424b"/>
    <rect x="368" y="15" width="6" height="1" fill="#39424b"/>
    <rect x="355" y="3" width="3" height="26" fill="#483338"/>
    <rect x="378" y="3" width="3" height="26" fill="#211b1d"/>
    <rect x="357" y="26" width="2" height="2" fill="#514735"/>
    <rect x="377" y="26" width="2" height="2" fill="#514735"/>
    <rect x="353" y="193" width="30" height="30" fill="#0e151d"/>
    <rect x="355" y="195" width="26" height="26" fill="#211b1d"/>
    <rect x="355" y="195" width="26" height="2" fill="#303c44"/>
    <rect x="355" y="199" width="26" height="6" fill="#332528"/>
    <rect x="357" y="207" width="22" height="13" fill="#39424b"/>
    <rect x="358" y="208" width="20" height="11" fill="#4a535b"/>
    <rect x="368" y="212" width="7" height="1" fill="#39424b"/>
    <rect x="355" y="195" width="3" height="26" fill="#483338"/>
    <rect x="378" y="195" width="3" height="26" fill="#211b1d"/>
    <rect x="357" y="199" width="2" height="2" fill="#514735"/>
    <rect x="377" y="199" width="2" height="2" fill="#514735"/>
    <rect x="65" y="1" width="30" height="30" fill="#0e151d"/>
    <rect x="67" y="3" width="26" height="26" fill="#211b1d"/>
    <rect x="69" y="4" width="22" height="17" fill="#39424b"/>
    <rect x="70" y="5" width="20" height="14" fill="#4a535b"/>
    <rect x="67" y="22" width="26" height="6" fill="#332528"/>
    <rect x="67" y="27" width="26" height="2" fill="#303c44"/>
    <rect x="74" y="8" width="1" height="6" fill="#39424b"/>
    <rect x="81" y="15" width="6" height="1" fill="#39424b"/>
    <rect x="67" y="3" width="3" height="26" fill="#483338"/>
    <rect x="90" y="3" width="3" height="26" fill="#211b1d"/>
    <rect x="69" y="26" width="2" height="2" fill="#514735"/>
    <rect x="89" y="26" width="2" height="2" fill="#514735"/>
    <rect x="65" y="193" width="30" height="30" fill="#0e151d"/>
    <rect x="67" y="195" width="26" height="26" fill="#211b1d"/>
    <rect x="67" y="195" width="26" height="2" fill="#303c44"/>
    <rect x="67" y="199" width="26" height="6" fill="#332528"/>
    <rect x="69" y="207" width="22" height="13" fill="#39424b"/>
    <rect x="70" y="208" width="20" height="11" fill="#4a535b"/>
    <rect x="77" y="212" width="7" height="1" fill="#39424b"/>
    <rect x="67" y="195" width="3" height="26" fill="#483338"/>
    <rect x="90" y="195" width="3" height="26" fill="#211b1d"/>
    <rect x="69" y="199" width="2" height="2" fill="#514735"/>
    <rect x="89" y="199" width="2" height="2" fill="#514735"/>
    <rect x="289" y="1" width="30" height="30" fill="#0e151d"/>
    <rect x="291" y="3" width="26" height="26" fill="#211b1d"/>
    <rect x="293" y="4" width="22" height="17" fill="#39424b"/>
    <rect x="294" y="5" width="20" height="14" fill="#4a535b"/>
    <rect x="291" y="22" width="26" height="6" fill="#332528"/>
    <rect x="291" y="27" width="26" height="2" fill="#303c44"/>
    <rect x="297" y="8" width="1" height="6" fill="#39424b"/>
    <rect x="307" y="15" width="6" height="1" fill="#39424b"/>
    <rect x="291" y="3" width="3" height="26" fill="#483338"/>
    <rect x="314" y="3" width="3" height="26" fill="#211b1d"/>
    <rect x="293" y="26" width="2" height="2" fill="#514735"/>
    <rect x="313" y="26" width="2" height="2" fill="#514735"/>
    <rect x="289" y="193" width="30" height="30" fill="#0e151d"/>
    <rect x="291" y="195" width="26" height="26" fill="#211b1d"/>
    <rect x="291" y="195" width="26" height="2" fill="#303c44"/>
    <rect x="291" y="199" width="26" height="6" fill="#332528"/>
    <rect x="293" y="207" width="22" height="13" fill="#39424b"/>
    <rect x="294" y="208" width="20" height="11" fill="#4a535b"/>
    <rect x="302" y="212" width="7" height="1" fill="#39424b"/>
    <rect x="291" y="195" width="3" height="26" fill="#483338"/>
    <rect x="314" y="195" width="3" height="26" fill="#211b1d"/>
    <rect x="293" y="199" width="2" height="2" fill="#514735"/>
    <rect x="313" y="199" width="2" height="2" fill="#514735"/>
  </g>
  <g id="high-gallery">
    <rect x="1" y="65" width="29" height="30" fill="#211b1d"/>
    <rect x="3" y="66" width="25" height="6" fill="#332528"/>
    <rect x="3" y="74" width="25" height="6" fill="#483338"/>
    <rect x="3" y="82" width="25" height="5" fill="#332528"/>
    <rect x="3" y="89" width="25" height="5" fill="#483338"/>
    <rect x="28" y="65" width="2" height="30" fill="#303c44"/>
    <rect x="26" y="69" width="2" height="3" fill="#536169"/>
    <rect x="26" y="88" width="2" height="3" fill="#536169"/>
    <rect x="1" y="97" width="29" height="30" fill="#211b1d"/>
    <rect x="3" y="98" width="25" height="6" fill="#332528"/>
    <rect x="3" y="106" width="25" height="6" fill="#483338"/>
    <rect x="3" y="114" width="25" height="5" fill="#332528"/>
    <rect x="3" y="121" width="25" height="5" fill="#483338"/>
    <rect x="28" y="97" width="2" height="30" fill="#303c44"/>
    <rect x="26" y="101" width="2" height="3" fill="#536169"/>
    <rect x="26" y="120" width="2" height="3" fill="#536169"/>
    <rect x="1" y="129" width="29" height="30" fill="#211b1d"/>
    <rect x="3" y="130" width="25" height="6" fill="#332528"/>
    <rect x="3" y="138" width="25" height="6" fill="#483338"/>
    <rect x="3" y="146" width="25" height="5" fill="#332528"/>
    <rect x="3" y="153" width="25" height="5" fill="#483338"/>
    <rect x="28" y="129" width="2" height="30" fill="#303c44"/>
    <rect x="26" y="133" width="2" height="3" fill="#536169"/>
    <rect x="26" y="152" width="2" height="3" fill="#536169"/>
  </g>
  <g id="registry-resonator">
    <polygon points="164,64 220,64 223,68 223,123 219,127 164,127 160,123 160,68" fill="#0e151d"/>
    <polygon points="166,67 218,67 220,70 220,121 217,124 166,124 163,121 163,70" fill="#303c44"/>
    <polygon points="168,70 190,70 190,121 168,121 166,119 166,72" fill="#1b252e"/>
    <polygon points="194,70 216,70 218,72 218,119 216,121 194,121" fill="#1b252e"/>
    <rect x="190" y="68" width="4" height="55" fill="#17151a"/>
    <rect x="168" y="75" width="20" height="3" fill="#536169"/>
    <rect x="196" y="75" width="20" height="3" fill="#536169"/>
    <rect x="168" y="113" width="20" height="3" fill="#536169"/>
    <rect x="196" y="113" width="20" height="3" fill="#536169"/>
    <rect x="171" y="81" width="4" height="27" fill="#17151a"/>
    <rect x="209" y="84" width="4" height="24" fill="#17151a"/>
    <rect x="178" y="83" width="9" height="3" fill="#514735"/>
    <rect x="181" y="86" width="6" height="8" fill="#6b5d40"/>
    <rect x="181" y="94" width="3" height="7" fill="#514735"/>
    <rect x="197" y="92" width="11" height="3" fill="#6b5d40"/>
    <rect x="197" y="95" width="4" height="9" fill="#514735"/>
    <rect x="201" y="101" width="7" height="3" fill="#6b5d40"/>
    <rect x="177" y="105" width="10" height="3" fill="#514735"/>
    <rect x="204" y="80" width="4" height="7" fill="#514735"/>
    <rect x="164" y="92" width="5" height="5" fill="#17151a"/>
    <rect x="215" y="98" width="5" height="5" fill="#17151a"/>
    <rect x="161" y="74" width="3" height="14" fill="#17151a"/>
    <rect x="220" y="105" width="3" height="12" fill="#17151a"/>
    <rect x="164" y="68" width="4" height="4" fill="#536169"/>
    <rect x="165" y="69" width="2" height="2" fill="#514735"/>
    <rect x="214" y="68" width="4" height="4" fill="#536169"/>
    <rect x="215" y="69" width="2" height="2" fill="#514735"/>
    <rect x="164" y="118" width="4" height="4" fill="#536169"/>
    <rect x="165" y="119" width="2" height="2" fill="#514735"/>
    <rect x="214" y="118" width="4" height="4" fill="#536169"/>
    <rect x="215" y="119" width="2" height="2" fill="#514735"/>
  </g>
  <g id="special-footings">
    <rect x="101" y="37" width="22" height="22" fill="#554d42"/>
    <rect x="102" y="38" width="20" height="2" fill="#6b5e49"/>
    <rect x="102" y="56" width="20" height="2" fill="#172332"/>
    <rect x="104" y="40" width="2" height="2" fill="#6b5d40"/>
    <rect x="118" y="40" width="2" height="2" fill="#6b5d40"/>
    <rect x="104" y="54" width="2" height="2" fill="#6b5d40"/>
    <rect x="118" y="54" width="2" height="2" fill="#6b5d40"/>
    <rect x="110" y="45" width="4" height="6" fill="#1b252e"/>
    <rect x="101" y="165" width="22" height="22" fill="#554d42"/>
    <rect x="102" y="166" width="20" height="2" fill="#6b5e49"/>
    <rect x="102" y="184" width="20" height="2" fill="#172332"/>
    <rect x="104" y="168" width="2" height="2" fill="#6b5d40"/>
    <rect x="118" y="168" width="2" height="2" fill="#6b5d40"/>
    <rect x="104" y="182" width="2" height="2" fill="#6b5d40"/>
    <rect x="118" y="182" width="2" height="2" fill="#6b5d40"/>
    <rect x="110" y="173" width="4" height="6" fill="#1b252e"/>
    <polygon points="167,41 171,37 184,37 187,40 187,55 183,59 168,59 165,56" fill="#0e151d"/>
    <rect x="169" y="41" width="14" height="3" fill="#536169"/>
    <rect x="169" y="47" width="17" height="3" fill="#303c44"/>
    <rect x="169" y="53" width="11" height="3" fill="#536169"/>
    <rect x="183" y="42" width="2" height="5" fill="#514735"/>
    <polygon points="199,169 203,165 216,165 219,168 219,183 215,187 200,187 197,184" fill="#0e151d"/>
    <rect x="201" y="169" width="14" height="3" fill="#536169"/>
    <rect x="201" y="175" width="17" height="3" fill="#303c44"/>
    <rect x="201" y="181" width="11" height="3" fill="#536169"/>
    <rect x="215" y="170" width="2" height="5" fill="#514735"/>
    <rect x="375" y="98" width="8" height="28" fill="#151923"/>
    <rect x="379" y="101" width="4" height="22" fill="#625746"/>
    <rect x="371" y="98" width="4" height="28" fill="#303c44"/>
    <rect x="369" y="100" width="2" height="24" fill="#536169"/>
    <rect x="361" y="122" width="10" height="3" fill="#554d42"/>
  </g>
  <g id="rain-drainage">
    <rect x="32" y="31" width="128" height="1" fill="#172332"/>
    <rect x="224" y="31" width="128" height="1" fill="#172332"/>
    <rect x="32" y="95" width="128" height="1" fill="#172332"/>
    <rect x="39" y="96" width="114" height="1" fill="#40556a"/>
    <rect x="224" y="95" width="128" height="1" fill="#172332"/>
    <rect x="231" y="96" width="114" height="1" fill="#40556a"/>
    <rect x="32" y="159" width="128" height="1" fill="#172332"/>
    <rect x="39" y="160" width="114" height="1" fill="#40556a"/>
    <rect x="224" y="159" width="128" height="1" fill="#172332"/>
    <rect x="231" y="160" width="114" height="1" fill="#40556a"/>
    <rect x="32" y="191" width="128" height="1" fill="#172332"/>
    <rect x="224" y="191" width="128" height="1" fill="#172332"/>
    <rect x="59" y="35" width="1" height="154" fill="#172332"/>
    <rect x="58" y="47" width="3" height="5" fill="#304153"/>
    <rect x="58" y="71" width="3" height="5" fill="#304153"/>
    <rect x="58" y="95" width="3" height="5" fill="#304153"/>
    <rect x="58" y="119" width="3" height="5" fill="#304153"/>
    <rect x="58" y="143" width="3" height="5" fill="#304153"/>
    <rect x="58" y="167" width="3" height="5" fill="#304153"/>
    <rect x="155" y="35" width="1" height="154" fill="#172332"/>
    <rect x="154" y="47" width="3" height="5" fill="#304153"/>
    <rect x="154" y="71" width="3" height="5" fill="#304153"/>
    <rect x="154" y="95" width="3" height="5" fill="#304153"/>
    <rect x="154" y="119" width="3" height="5" fill="#304153"/>
    <rect x="154" y="143" width="3" height="5" fill="#304153"/>
    <rect x="154" y="167" width="3" height="5" fill="#304153"/>
    <rect x="251" y="35" width="1" height="154" fill="#172332"/>
    <rect x="250" y="47" width="3" height="5" fill="#304153"/>
    <rect x="250" y="71" width="3" height="5" fill="#304153"/>
    <rect x="250" y="95" width="3" height="5" fill="#304153"/>
    <rect x="250" y="119" width="3" height="5" fill="#304153"/>
    <rect x="250" y="143" width="3" height="5" fill="#304153"/>
    <rect x="250" y="167" width="3" height="5" fill="#304153"/>
    <rect x="347" y="35" width="1" height="154" fill="#172332"/>
    <rect x="346" y="47" width="3" height="5" fill="#304153"/>
    <rect x="346" y="71" width="3" height="5" fill="#304153"/>
    <rect x="346" y="95" width="3" height="5" fill="#304153"/>
    <rect x="346" y="119" width="3" height="5" fill="#304153"/>
    <rect x="346" y="143" width="3" height="5" fill="#304153"/>
    <rect x="346" y="167" width="3" height="5" fill="#304153"/>
    <rect x="31" y="66" width="2" height="92" fill="#1b252e"/>
    <rect x="32" y="70" width="1" height="84" fill="#536169"/>
  </g>
  <g id="surface-detail">
    <rect x="149" y="41" width="1" height="5" fill="#172332"/>
    <rect x="150" y="45" width="4" height="1" fill="#172332"/>
    <rect x="261" y="44" width="2" height="1" fill="#40556a"/>
    <rect x="263" y="45" width="5" height="1" fill="#304153"/>
    <rect x="53" y="73" width="1" height="5" fill="#172332"/>
    <rect x="54" y="77" width="4" height="1" fill="#172332"/>
    <rect x="261" y="71" width="2" height="1" fill="#40556a"/>
    <rect x="263" y="72" width="5" height="1" fill="#304153"/>
    <rect x="69" y="108" width="2" height="1" fill="#40556a"/>
    <rect x="71" y="109" width="5" height="1" fill="#304153"/>
    <rect x="309" y="105" width="1" height="5" fill="#172332"/>
    <rect x="310" y="109" width="4" height="1" fill="#172332"/>
    <rect x="69" y="135" width="2" height="1" fill="#40556a"/>
    <rect x="71" y="136" width="5" height="1" fill="#304153"/>
    <rect x="213" y="137" width="1" height="5" fill="#172332"/>
    <rect x="214" y="141" width="4" height="1" fill="#172332"/>
    <rect x="325" y="140" width="2" height="1" fill="#40556a"/>
    <rect x="327" y="141" width="5" height="1" fill="#304153"/>
    <rect x="117" y="169" width="1" height="5" fill="#172332"/>
    <rect x="118" y="173" width="4" height="1" fill="#172332"/>
    <rect x="229" y="172" width="2" height="1" fill="#40556a"/>
    <rect x="231" y="173" width="5" height="1" fill="#304153"/>
    <rect x="325" y="167" width="2" height="1" fill="#40556a"/>
    <rect x="327" y="168" width="5" height="1" fill="#304153"/>
    <rect x="73" y="119" width="8" height="1" fill="#304153"/>
    <rect x="82" y="116" width="5" height="1" fill="#172332"/>
    <rect x="73" y="151" width="8" height="1" fill="#304153"/>
    <rect x="82" y="148" width="5" height="1" fill="#172332"/>
    <rect x="105" y="119" width="8" height="1" fill="#304153"/>
    <rect x="114" y="116" width="5" height="1" fill="#172332"/>
    <rect x="298" y="104" width="11" height="1" fill="#172332"/>
    <rect x="303" y="108" width="8" height="1" fill="#304153"/>
  </g>
  <g id="edge-frame">
    <rect x="0" y="0" width="384" height="1" fill="#0b111a"/>
    <rect x="0" y="223" width="384" height="1" fill="#0b111a"/>
    <rect x="0" y="0" width="1" height="224" fill="#0b111a"/>
    <rect x="383" y="0" width="1" height="224" fill="#0b111a"/>
  </g>
</svg>
